<svg width="163" height="65" viewBox="0 0 163 65" xmlns="http://www.w3.org/2000/svg">
<path d="M12.705 45.1279H17.0267V45.6396L14.0161 50.7762H17.1511V51.7617H12.5623V51.25L15.6127 46.1134H12.705V45.1279Z"/>
<path d="M24.1868 45.1279H25.239V51.7617H24.1868V45.1279Z"/>
<path d="M32.5988 45.1279H33.8419L35.5048 49.5439L37.1678 45.1279H38.4109V51.7617H37.3586V47.2882L35.8766 51.1546H35.1314L33.6494 47.2882V51.7617H32.5972V45.1279H32.5988Z"/>
<path d="M48.4954 45.1279L50.8189 51.7617H49.7484L49.1941 50.1131H46.8042L46.2499 51.7617H45.1794L47.5029 45.1279H48.4954ZM47.1179 49.1276H48.8771L47.9975 46.4458L47.1179 49.1276Z"/>
<path d="M65.8364 45.1279H67.0794L68.7424 49.5439L70.4053 45.1279H71.6484V51.7617H70.5962V47.2882L69.1141 51.1546H68.369L66.8869 47.2882V51.7617H65.8347V45.1279H65.8364Z"/>
<path d="M81.7337 45.1279L84.0572 51.7617H82.9867L82.4324 50.1131H80.0425L79.4882 51.7617H78.4177L80.7412 45.1279H81.7337ZM80.3578 49.1276H82.117L81.2374 46.4458L80.3578 49.1276Z"/>
<path d="M95.1002 50.9379C94.8612 51.3459 94.287 51.8379 93.341 51.8379C91.7726 51.8379 90.3005 50.7767 90.3005 48.4453C90.3005 46.1139 91.7926 45.0527 93.3974 45.0527C94.8313 45.0527 95.7972 45.905 96.0644 47.0995L95.0985 47.394C94.7732 46.4743 94.1907 46.0383 93.3974 46.0383C92.2506 46.0383 91.371 46.8346 91.371 48.4453C91.371 50.1037 92.2506 50.8523 93.3974 50.8523C94.4496 50.8523 94.9558 50.1416 95.0421 49.3354H93.7426V48.4157H96.0943V51.7605H95.1765L95.1002 50.9379Z"/>
<path d="M105.988 45.1279L108.311 51.7617H107.241L106.686 50.1131H104.296L103.742 51.7617H102.672L104.995 45.1279H105.988ZM104.612 49.1276H106.371L105.491 46.4458L104.612 49.1276Z"/>
<path d="M114.857 45.1279H119.179V45.6396L116.168 50.7762H119.303V51.7617H114.714V51.25L117.765 46.1134H114.858V45.1279H114.857Z"/>
<path d="M126.34 45.1279H127.392V51.7617H126.34V45.1279Z"/>
<path d="M139.475 45.1279V51.7617H138.346L135.603 47.0035V51.7617H134.551V45.1279H135.679L138.422 49.9042V45.1279H139.475Z"/>
<path d="M150.655 45.1279V46.1134H147.739V47.7439H150.091V48.7294H147.739V50.7762H150.75V51.7617H146.687V45.1279H150.655Z"/>
<path d="M100.658 27.0173C101.27 26.0614 101.803 25.1236 102.324 24.1809C104.292 20.6271 106.196 17.0387 107.696 13.2628C107.96 12.5998 108.308 12.2526 108.991 12.0832C109.832 11.8742 110.65 11.5715 111.465 11.2753C111.77 11.1651 111.827 11.2671 111.855 11.5303C112.003 12.9453 112.157 14.3602 112.313 15.7752C112.617 18.5326 112.924 21.2901 113.224 24.0476C113.455 26.1634 113.681 28.2793 113.91 30.3967C114.016 31.3839 114.112 32.3711 114.24 33.3549C114.273 33.6165 114.192 33.656 113.963 33.656C112.343 33.6495 110.722 33.6478 109.102 33.6577C108.858 33.6593 108.791 33.5655 108.773 33.3517C108.602 31.4102 108.428 29.4688 108.25 27.5274C108.018 24.9904 107.781 22.455 107.547 19.918C107.44 18.7745 107.341 17.631 107.235 16.4876C107.223 16.3592 107.248 16.2243 107.13 16.0532C106.883 16.6126 106.642 17.1342 106.418 17.6623C104.694 21.7146 103.069 25.8048 101.736 30.0035C101.414 31.0187 101.121 32.0404 100.88 33.0769C100.832 33.2858 100.755 33.373 100.53 33.3928C99.9157 33.4471 99.3032 33.5195 98.6958 33.6133C98.4701 33.6478 98.3805 33.5771 98.2859 33.3862C96.3391 29.5001 94.3858 25.6172 92.4324 21.7344C91.5395 19.9591 90.6449 18.1822 89.7504 16.4069C89.7288 16.3642 89.7006 16.3263 89.6309 16.2128C89.5977 16.5188 89.5629 16.7541 89.5479 16.991C89.382 19.8258 89.4152 22.659 89.6442 25.4905C89.8599 28.1509 90.2085 30.7916 90.7279 33.4109C90.7711 33.6248 90.6964 33.656 90.5138 33.656C89.0865 33.6527 87.6593 33.6495 86.232 33.6577C85.988 33.6593 85.9581 33.5869 86.0096 33.3632C86.451 31.4662 86.866 29.5626 87.2394 27.6508C87.8186 24.681 88.3298 21.7014 88.738 18.7054C88.8741 17.71 89.0052 16.7146 89.1496 15.7209C89.1961 15.4017 89.1579 15.1203 89.0002 14.8275C88.6268 14.1315 88.2932 13.4142 87.9265 12.7133C87.8086 12.4879 87.8584 12.4155 88.0941 12.3612C89.6458 12.0025 91.1976 11.6422 92.7427 11.2605C93.0282 11.1898 93.0713 11.3559 93.1526 11.5254C94.2198 13.735 95.2869 15.9463 96.3541 18.1559C97.7382 21.0236 99.124 23.8913 100.51 26.759C100.545 26.8298 100.589 26.8989 100.658 27.0173Z"/>
<path d="M66.9088 12.4352C65.1164 12.0305 63.3854 11.6439 61.6594 11.2424C61.437 11.1898 61.3839 11.3378 61.2926 11.4497C59.7159 13.4027 58.1393 15.3573 56.5643 17.3118C53.6019 20.9874 50.6411 24.6629 47.6786 28.3385C47.6289 28.3994 47.604 28.4931 47.4712 28.5014C47.4297 27.8104 47.4944 27.1243 47.5492 26.4415C47.8479 22.6656 48.5848 18.9637 49.5042 15.2947C49.7797 14.194 50.115 13.1082 50.4303 12.0173C50.5465 11.6175 50.5564 11.6192 50.1249 11.6192C48.7591 11.6192 47.3915 11.6208 46.0257 11.6175C45.8215 11.6175 45.6871 11.611 45.7302 11.8989C46.0954 14.3487 46.3277 16.8117 46.5235 19.2796C46.7376 21.9762 46.8804 24.6761 46.9119 27.3793C46.9351 29.4013 46.8438 31.4217 46.7111 33.4405C46.6945 33.6988 46.7277 33.8189 47.0347 33.8403C47.6969 33.8864 48.3574 33.9719 49.0146 34.0674C49.2404 34.1003 49.3167 33.9571 49.4229 33.8387C51.7132 31.2441 53.9437 28.5968 56.1162 25.9051C58.8164 22.5586 61.5117 19.2072 64.2086 15.8591C64.2534 15.8048 64.3015 15.7521 64.4011 15.6386C64.4011 16.091 64.4127 16.476 64.3994 16.8594C64.2285 21.7212 63.4186 26.4826 62.1075 31.1667C61.9149 31.8577 61.6992 32.5405 61.4884 33.2266C61.3573 33.6527 61.3523 33.6527 61.7872 33.6527C63.1049 33.6527 64.4226 33.6527 65.7421 33.6527C66.2117 33.6527 66.215 33.6527 66.1653 33.174C66.0458 32.0321 65.908 30.892 65.8035 29.7501C65.6309 27.8317 65.4533 25.915 65.3222 23.9933C65.1263 21.1042 65.0102 18.2118 64.9405 15.3161C64.9338 15.0512 64.9936 14.8406 65.1662 14.63C65.7387 13.9275 66.298 13.2069 66.9088 12.4352Z"/>
<path d="M145.466 33.7446C145.202 33.8368 145.078 33.6805 144.976 33.3744C144.254 31.1714 143.508 28.9766 142.781 26.7752C142.698 26.5218 142.581 26.4231 142.299 26.4198C140.341 26.3984 138.383 26.3507 136.428 26.4906C136.368 26.4955 136.306 26.5054 136.247 26.5005C135.875 26.4692 135.74 26.6436 135.687 27.0056C135.38 29.077 135.165 31.1566 135.023 33.2428C134.989 33.7496 134.994 33.7446 134.487 33.7183C133.148 33.6525 131.807 33.5801 130.468 33.5357C130.129 33.5242 130.121 33.4435 130.262 33.1786C132.293 29.3336 134.099 25.385 135.73 21.3573C136.862 18.5636 137.939 15.7502 138.957 12.9154C139.061 12.6242 139.212 12.4432 139.516 12.3297C140.396 11.999 141.267 11.6436 142.13 11.2718C142.424 11.1451 142.508 11.224 142.608 11.4972C143.866 14.944 145.136 18.3876 146.402 21.8328C147.766 25.5462 149.129 29.2612 150.493 32.9746C150.636 33.3629 150.636 33.3563 150.234 33.3859C148.667 33.5011 147.101 33.6212 145.466 33.7446ZM138.811 14.9424C138.756 15.0641 138.739 15.0954 138.728 15.1283C137.554 18.4731 136.608 21.8772 135.961 25.3603C135.872 25.8423 135.84 25.8144 136.358 25.8226C138.208 25.8539 140.057 25.8621 141.906 25.7601C142.412 25.7321 142.41 25.7354 142.251 25.2566C141.41 22.7278 140.57 20.199 139.729 17.6702C139.433 16.79 139.136 15.9114 138.811 14.9424Z"/>
<path d="M19.5711 20.9594C20.7793 21.0318 21.9543 21.2128 23.0663 21.685C24.7558 22.4007 26.0155 23.5194 26.3789 25.3852C26.6793 26.9235 26.2395 28.327 25.3914 29.6086C24.2081 31.397 22.4821 32.4763 20.4806 33.1591C18.0011 34.0048 15.4419 34.1035 12.8546 33.9061C12.7334 33.8962 12.6139 33.8831 12.4928 33.8831C12.2803 33.8814 12.2787 33.7284 12.2671 33.5853C12.2488 33.3796 12.4081 33.4306 12.516 33.4322C13.8371 33.4471 15.1498 33.3615 16.4327 33.0226C18.2085 32.5537 19.7636 31.731 20.6382 30.0512C21.5394 28.3187 21.6058 26.5287 20.5818 24.811C19.918 23.6955 18.8077 23.197 17.5596 22.9732C16.9257 22.8597 16.285 22.8548 15.6444 22.8975C15.4967 22.9074 15.3573 22.9288 15.3224 22.7165C15.2909 22.5224 15.3639 22.4451 15.5432 22.3809C16.8676 21.9104 18.1455 21.3427 19.2259 20.4263C20.6482 19.217 21.2689 17.71 20.786 15.8771C20.4159 14.4737 19.3719 13.7432 17.9812 13.5046C16.1025 13.1838 14.496 13.8617 13.0139 14.936C12.9127 15.0101 12.8297 15.2322 12.6405 15.0117C12.4911 14.839 12.5558 14.7369 12.6803 14.5905C14.0296 13.0176 15.6361 11.833 17.709 11.3937C19.9561 10.9166 22.1435 11.0301 24.1168 12.3414C25.2885 13.1196 25.9955 14.194 25.9059 15.655C25.8495 16.5846 25.3981 17.3398 24.7658 17.9946C23.6654 19.1331 22.2796 19.8357 20.844 20.4526C20.4242 20.632 19.996 20.7899 19.5711 20.9594Z"/>
</svg>
